<?xml version="1.0" encoding="UTF-8" standalone="no"?>
<!DOCTYPE svg PUBLIC "-//W3C//DTD SVG 1.1//EN" "http://www.w3.org/Graphics/SVG/1.1/DTD/svg11.dtd">
<svg version="1.1" xmlns="http://www.w3.org/2000/svg" xmlns:xlink="http://www.w3.org/1999/xlink" preserveAspectRatio="xMidYMid meet" viewBox="0 0 640 640" width="640" height="640"><defs><path d="M149.33 106.85C-33.31 127.38 -41.22 252.47 138.67 275.53C146.98 276.6 157.16 277.88 161.28 278.39C161.78 278.45 164.29 278.76 168.79 279.31L169.28 303.12L169.78 326.92C196.44 306.18 211.26 294.66 214.22 292.36C238.67 273.35 258.67 256.99 258.67 256C258.67 255.01 238.67 238.65 214.22 219.64C211.26 217.34 196.44 205.82 169.78 185.08L169.28 208.29L168.78 231.51C162.68 230.81 159.29 230.42 158.61 230.34C114.17 225.24 73.02 211.58 59.66 197.5C59.31 197.13 57.57 195.29 54.43 191.98C57.92 188.38 59.86 186.38 60.25 185.98C103.15 141.72 300.84 141.96 339.79 186.32C340.15 186.72 341.94 188.76 345.15 192.42C342.14 195.6 340.47 197.36 340.13 197.71C334.18 203.99 316.72 213.06 300 218.56C299.2 218.83 295.2 220.14 288 222.51L288 246.57L288 270.62C291.97 269.87 294.18 269.46 294.62 269.38C380.12 253.34 418.06 192.56 369.82 148.91C332.87 115.47 236.38 97.06 149.33 106.85" id="d1N77bzoqF"></path></defs><g><g><g><use xlink:href="#d1N77bzoqF" opacity="1" fill="#c0c0c0" fill-opacity="1"></use><g><use xlink:href="#d1N77bzoqF" opacity="1" fill-opacity="0" stroke="#000000" stroke-width="1" stroke-opacity="0"></use></g></g></g></g></svg>